HIERARCHY
ROOT hip
{
	OFFSET 0.000000 0.000000 0.000000 
	CHANNELS 6 Xposition Yposition Zposition Xrotation Zrotation Yrotation
	JOINT abdomen
	{
		OFFSET 0.000000 3.402643 0.000000 
		CHANNELS 3 Xrotation Zrotation Yrotation
		JOINT chest
		{
			OFFSET 0.000000 8.438565 -0.680529 
			CHANNELS 3 Xrotation Zrotation Yrotation
			JOINT neck
			{
				OFFSET 0.000000 10.207942 -0.272212 
				CHANNELS 3 Xrotation Zrotation Yrotation
				JOINT head
				{
					OFFSET 0.000000 3.130431 0.000000 
					CHANNELS 3 Xrotation Zrotation Yrotation
					End Site
					{
						OFFSET 0.000000 3.130435 0.000000 
					}
				}
			}
			JOINT lCollar
			{
				OFFSET 3.470700 6.669187 -0.816635 
				CHANNELS 3 Yrotation Zrotation Xrotation
				JOINT lShldr
				{
					OFFSET 3.198488 0.000000 0.000000 
					CHANNELS 3 Zrotation Yrotation Xrotation
					JOINT lForeArm
					{
						OFFSET 10.139888 0.000000 0.000000 
						CHANNELS 3 Yrotation Zrotation Xrotation
						JOINT lHand
						{
							OFFSET 8.370511 0.000000 0.000000 
							CHANNELS 3 Zrotation Yrotation Xrotation
							End Site
							{
								OFFSET 4.083176 0.000000 0.000000 
							}
						}
					}
				}
			}
			JOINT rCollar
			{
				OFFSET -3.470700 6.669187 -0.816635 
				CHANNELS 3 Yrotation Zrotation Xrotation
				JOINT rShldr
				{
					OFFSET -3.198488 0.000000 0.000000 
					CHANNELS 3 Zrotation Yrotation Xrotation
					JOINT rForeArm
					{
						OFFSET -10.139888 0.000000 0.000000 
						CHANNELS 3 Yrotation Zrotation Xrotation
						JOINT rHand
						{
							OFFSET -8.370511 0.000000 0.000000 
							CHANNELS 3 Zrotation Yrotation Xrotation
							End Site
							{
								OFFSET -4.083176 0.000000 0.000000 
							}
						}
					}
				}
			}
		}
	}
	JOINT lThigh
	{
		OFFSET 5.308129 -1.633274 1.361059 
		CHANNELS 3 Xrotation Zrotation Yrotation
		JOINT lShin
		{
			OFFSET -2.041588 -20.007561 0.000000 
			CHANNELS 3 Xrotation Zrotation Yrotation
			JOINT lFoot
			{
				OFFSET 0.000000 -19.190928 -1.224953 
				CHANNELS 3 Xrotation Yrotation Zrotation
				End Site
				{
					OFFSET 0.000000 -2.449906 4.627600 
				}
			}
		}
	}
	JOINT rThigh
	{
		OFFSET -5.308129 -1.633274 1.361059 
		CHANNELS 3 Xrotation Zrotation Yrotation
		JOINT rShin
		{
			OFFSET 2.041588 -20.007561 0.000000 
			CHANNELS 3 Xrotation Zrotation Yrotation
			JOINT rFoot
			{
				OFFSET 0.000000 -19.190928 -1.224953 
				CHANNELS 3 Xrotation Yrotation Zrotation
				End Site
				{
					OFFSET 0.000000 -2.449906 4.627600 
				}
			}
		}
	}
}
MOTION
Frames: 6
Frame Time: 0.033333
0.074471 52.884583 0.250042 175.595703 179.990234 0.341799 24.630669 -13.321809 -3.488273 -17.402344 5.917970 1.719757 51.063168 8.107644 2.471410 -51.093758 -3.525390 7.910156 2.000000 -2.000000 0.000000 -106.533203 15.205078 -39.929077 -71.834244 -0.650495 -2.990416 -40.330910 39.921120 -75.753395 -2.000000 2.000000 0.000000 62.812496 -34.609375 16.425781 91.835266 0.106225 -3.051344 -51.130039 -32.604904 61.806580 6.908446 -4.439850 -1.141680 2.068996 -5.651398 -0.449123 2.788883 11.589892 -14.643669 3.304719 -12.495317 -45.643692 0.134103 4.757276 0.159066 12.565020 -7.967451 11.293074 
0.136548 52.923969 0.486881 175.595703 179.990234 0.166017 24.806238 -13.318386 -3.497416 -17.607422 5.927735 1.690462 51.063168 8.107644 2.471410 -50.810551 -4.414062 9.121095 2.000000 -2.000000 0.000000 -106.445305 15.078124 -40.153709 -72.003365 -0.792929 -2.747477 -40.376522 39.805622 -75.475174 -2.000000 2.000000 0.000000 62.656250 -34.218750 16.582033 92.011322 0.106789 -3.061089 -50.925308 -32.233490 60.765152 6.551616 -4.384026 -0.967202 2.418447 -5.648737 -0.431035 2.523837 11.413548 -14.743954 2.898229 -12.469521 -45.051514 0.114360 4.758319 0.186773 12.563693 -7.976959 11.300817 
0.184969 52.955490 0.721684 175.771484 179.990234 0.000000 25.181171 -13.462950 -3.585399 -17.607422 5.927735 1.690462 51.063168 8.107644 2.471410 -50.380863 -5.693359 10.849611 2.000000 -2.000000 0.000000 -106.220703 15.224609 -40.224606 -72.179153 -0.783180 -2.748043 -40.243767 39.819794 -75.001175 -2.000000 2.000000 0.000000 62.783203 -33.945309 16.826172 92.187111 0.087290 -3.062217 -50.979485 -31.541613 59.530933 6.386404 -4.238147 -1.078861 2.594223 -5.666659 -0.163638 2.760767 11.625724 -14.650264 2.692427 -12.273181 -44.849541 0.114383 4.758319 0.186773 12.554414 -8.233869 11.385753 
0.221481 52.979122 0.941766 175.947266 179.990234 0.000000 25.552443 -13.461789 -3.616258 -17.783201 5.927735 1.670930 51.063168 8.107644 2.471410 -49.785160 -7.148437 13.544923 2.000000 -2.000000 0.000000 -106.103516 14.814453 -40.534615 -72.354942 -0.773431 -2.748608 -40.365120 39.697590 -74.456688 -2.000000 2.000000 0.000000 62.314453 -33.759766 16.669920 92.363167 0.078104 -3.072527 -50.828403 -31.515032 58.559303 6.019936 -4.166284 -1.060209 2.936658 -5.805502 -0.360310 2.627753 11.812534 -14.693557 2.585178 -12.420197 -44.483944 0.114419 4.758147 0.177017 12.493339 -8.601132 11.410859 
0.250818 53.010643 1.156225 175.947266 -179.843750 -0.185573 25.918386 -13.612026 -3.719126 -17.958984 5.937500 1.660156 51.063168 8.107644 2.471410 -48.876957 -9.160155 17.041014 2.000000 -2.000000 0.000000 -105.771484 14.541015 -40.749504 -72.530998 -0.773996 -2.758354 -39.435692 39.523281 -72.967659 -2.000000 2.000000 0.000000 61.933594 -34.218750 16.517946 92.714729 0.068355 -3.073091 -50.467648 -31.332075 57.439007 5.714002 -4.280584 -0.588437 3.294776 -5.823981 -0.490057 2.732686 11.866997 -14.073553 2.775882 -12.474755 -44.355873 0.143931 5.216437 0.171616 12.439664 -8.744563 11.129114 
0.267581 53.050022 1.379502 176.132828 -179.843750 -0.361355 26.093937 -13.608604 -3.728269 -17.958984 5.937500 1.835938 51.063168 8.107644 2.471410 -48.339844 -11.318358 21.220703 2.000000 -2.000000 0.000000 -105.117188 14.472657 -40.837402 -72.711693 -0.764665 -2.934903 -39.674278 39.474144 -72.738403 -2.000000 2.000000 0.000000 61.357418 -34.277344 16.337891 93.070671 0.233359 -3.220034 -50.575996 -30.672054 56.929691 5.561102 -4.322021 -0.566172 3.464088 -5.827974 -0.358544 2.895946 11.958245 -14.489799 2.162694 -12.387815 -43.911221 0.114403 4.736094 0.031012 13.189495 -8.791382 11.448826 
